<svg width="14" height="14" viewBox="0 0 14 14" fill="none" xmlns="http://www.w3.org/2000/svg">
<path fill-rule="evenodd" clip-rule="evenodd" d="M8.00033 11.5827C8.58366 11.9994 9.33366 11.666 9.33366 10.916V7.16602L6.25033 10.2493L8.00033 11.5827Z" fill="white"/>
<path fill-rule="evenodd" clip-rule="evenodd" d="M13.2503 0.416016C12.917 0.0826823 12.417 0.0826823 12.0837 0.416016L9.33366 3.16602V1.08268C9.33366 0.416015 8.50033 -0.00065104 8.00033 0.416016L5.66699 2.33268C5.33366 2.49935 5.00033 2.66602 4.58366 2.66602H2.66699C1.75033 2.66602 1.00033 3.41602 1.00033 4.33268V7.66602C1.00033 8.58268 1.75033 9.33268 2.66699 9.33268H3.16699L0.416992 12.0827C0.0836589 12.416 0.0836589 12.916 0.416992 13.2494C0.750326 13.5827 1.25033 13.5827 1.58366 13.2494L13.2503 1.58268C13.5837 1.24935 13.5837 0.749349 13.2503 0.416016Z" fill="white"/>
</svg>
